<svg width="205" height="26" viewBox="0 0 205 26" fill="none" xmlns="http://www.w3.org/2000/svg">
<path d="M6.07812 17.5V9.04492H7.10352L11.9492 15.9941L11.2461 15.625H11.7852V9.04492H12.8281V17.5H11.8027L6.95703 10.5742L7.66016 10.9434H7.12109V17.5H6.07812Z" fill="#A1A1AA"/>
<path d="M17.4512 17.6113C16.8535 17.6113 16.3359 17.4805 15.8984 17.2188C15.4648 16.9531 15.1289 16.5762 14.8906 16.0879C14.6562 15.5996 14.5391 15.0195 14.5391 14.3477V14.3359C14.5391 13.6602 14.6562 13.0781 14.8906 12.5898C15.1289 12.1016 15.4648 11.7266 15.8984 11.4648C16.3359 11.2031 16.8535 11.0723 17.4512 11.0723C18.0527 11.0723 18.5703 11.2031 19.0039 11.4648C19.4375 11.7266 19.7715 12.1016 20.0059 12.5898C20.2441 13.0781 20.3633 13.6602 20.3633 14.3359V14.3477C20.3633 15.0195 20.2441 15.5996 20.0059 16.0879C19.7715 16.5762 19.4375 16.9531 19.0039 17.2188C18.5703 17.4805 18.0527 17.6113 17.4512 17.6113ZM17.4512 16.709C17.8496 16.709 18.1875 16.6152 18.4648 16.4277C18.7422 16.2402 18.9531 15.9707 19.0977 15.6191C19.2461 15.2676 19.3203 14.8438 19.3203 14.3477V14.3359C19.3203 13.8359 19.2461 13.4102 19.0977 13.0586C18.9531 12.707 18.7422 12.4395 18.4648 12.2559C18.1875 12.0684 17.8496 11.9746 17.4512 11.9746C17.0527 11.9746 16.7148 12.0684 16.4375 12.2559C16.1602 12.4395 15.9473 12.707 15.7988 13.0586C15.6543 13.4102 15.582 13.8359 15.582 14.3359V14.3477C15.582 14.8438 15.6543 15.2676 15.7988 15.6191C15.9473 15.9707 16.1602 16.2402 16.4375 16.4277C16.7148 16.6152 17.0527 16.709 17.4512 16.709Z" fill="#A1A1AA"/>
<path d="M24.1895 17.5469C23.541 17.5469 23.0703 17.416 22.7773 17.1543C22.4883 16.8926 22.3438 16.4609 22.3438 15.8594V12.0273H21.3477V11.1836H22.3438V9.54883H23.3984V11.1836H24.7812V12.0273H23.3984V15.6016C23.3984 15.9727 23.4688 16.2402 23.6094 16.4043C23.75 16.5645 23.9844 16.6445 24.3125 16.6445C24.4023 16.6445 24.4785 16.6426 24.541 16.6387C24.6074 16.6348 24.6875 16.6289 24.7812 16.6211V17.4883C24.6836 17.5039 24.5859 17.5176 24.4883 17.5293C24.3906 17.541 24.291 17.5469 24.1895 17.5469Z" fill="#A1A1AA"/>
<path d="M28.8008 17.6113C28.1992 17.6113 27.6816 17.4785 27.248 17.2129C26.8184 16.9473 26.4863 16.5723 26.252 16.0879C26.0215 15.5996 25.9062 15.0254 25.9062 14.3652V14.3594C25.9062 13.707 26.0215 13.1348 26.252 12.6426C26.4863 12.1504 26.8164 11.7656 27.2422 11.4883C27.668 11.2109 28.166 11.0723 28.7363 11.0723C29.3105 11.0723 29.8027 11.2051 30.2129 11.4707C30.627 11.7363 30.9434 12.1074 31.1621 12.584C31.3848 13.0566 31.4961 13.6074 31.4961 14.2363V14.6348H26.4336V13.8203H30.9746L30.4707 14.5645V14.1602C30.4707 13.6641 30.3965 13.2559 30.248 12.9355C30.0996 12.6152 29.8945 12.377 29.6328 12.2207C29.3711 12.0605 29.0703 11.9805 28.7305 11.9805C28.3906 11.9805 28.0859 12.0645 27.8164 12.2324C27.5508 12.3965 27.3398 12.6406 27.1836 12.9648C27.0273 13.2891 26.9492 13.6875 26.9492 14.1602V14.5645C26.9492 15.0137 27.0254 15.3984 27.1777 15.7188C27.3301 16.0352 27.5469 16.2793 27.8281 16.4512C28.1094 16.6191 28.4414 16.7031 28.8242 16.7031C29.1094 16.7031 29.3574 16.6641 29.5684 16.5859C29.7793 16.5078 29.9531 16.4082 30.0898 16.2871C30.2266 16.166 30.3223 16.043 30.377 15.918L30.4004 15.8652H31.4199L31.4082 15.9121C31.3535 16.127 31.2559 16.3359 31.1152 16.5391C30.9785 16.7383 30.8008 16.9199 30.582 17.084C30.3633 17.2441 30.1035 17.373 29.8027 17.4707C29.5059 17.5645 29.1719 17.6113 28.8008 17.6113Z" fill="#A1A1AA"/>
<path d="M38.6973 17.5469C38.0488 17.5469 37.5781 17.416 37.2852 17.1543C36.9961 16.8926 36.8516 16.4609 36.8516 15.8594V12.0273H35.8555V11.1836H36.8516V9.54883H37.9062V11.1836H39.2891V12.0273H37.9062V15.6016C37.9062 15.9727 37.9766 16.2402 38.1172 16.4043C38.2578 16.5645 38.4922 16.6445 38.8203 16.6445C38.9102 16.6445 38.9863 16.6426 39.0488 16.6387C39.1152 16.6348 39.1953 16.6289 39.2891 16.6211V17.4883C39.1914 17.5039 39.0938 17.5176 38.9961 17.5293C38.8984 17.541 38.7988 17.5469 38.6973 17.5469Z" fill="#A1A1AA"/>
<path d="M42.5469 17.6113C42.1484 17.6113 41.7891 17.5352 41.4688 17.3828C41.1523 17.2305 40.9004 17.0137 40.7129 16.7324C40.5293 16.4512 40.4375 16.1191 40.4375 15.7363V15.7246C40.4375 15.3496 40.5273 15.0293 40.707 14.7637C40.8867 14.4941 41.1484 14.2832 41.4922 14.1309C41.8359 13.9785 42.252 13.8887 42.7402 13.8613L45.0605 13.7207V14.5352L42.8633 14.6758C42.3828 14.7031 42.0312 14.8027 41.8086 14.9746C41.5898 15.1465 41.4805 15.3887 41.4805 15.7012V15.7129C41.4805 16.0332 41.6016 16.2832 41.8438 16.4629C42.0859 16.6387 42.3906 16.7266 42.7578 16.7266C43.1055 16.7266 43.4141 16.6582 43.6836 16.5215C43.9531 16.3809 44.1641 16.1914 44.3164 15.9531C44.4727 15.7148 44.5508 15.4453 44.5508 15.1445V13.1758C44.5508 12.7852 44.4316 12.4883 44.1934 12.2852C43.959 12.0781 43.6055 11.9746 43.1328 11.9746C42.7539 11.9746 42.4434 12.043 42.2012 12.1797C41.959 12.3125 41.7969 12.502 41.7148 12.748L41.709 12.7656H40.6895L40.6953 12.7305C40.75 12.3984 40.8867 12.1094 41.1055 11.8633C41.3281 11.6133 41.6152 11.4199 41.9668 11.2832C42.3184 11.1426 42.7188 11.0723 43.168 11.0723C43.6836 11.0723 44.1191 11.1562 44.4746 11.3242C44.834 11.4922 45.1055 11.7344 45.2891 12.0508C45.4766 12.3633 45.5703 12.7383 45.5703 13.1758V17.5H44.5508V16.5684H44.457C44.3242 16.791 44.1621 16.9805 43.9707 17.1367C43.7832 17.293 43.5703 17.4121 43.332 17.4941C43.0938 17.5723 42.832 17.6113 42.5469 17.6113Z" fill="#A1A1AA"/>
<path d="M47.4922 17.5V8.67578H48.5117V17.5H47.4922ZM51.4707 17.5L49.0039 14.4062L49.7539 13.7559L52.7539 17.5H51.4707ZM48.3828 15.2266L48.3359 13.9434H48.6055L51.3359 11.1836H52.5723L49.5723 14.0781L49.3262 14.3184L48.3828 15.2266Z" fill="#A1A1AA"/>
<path d="M53.9727 17.5V11.1836H54.9922V17.5H53.9727ZM54.4883 9.96484C54.2969 9.96484 54.1309 9.89648 53.9902 9.75977C53.8535 9.61914 53.7852 9.45312 53.7852 9.26172C53.7852 9.06641 53.8535 8.90039 53.9902 8.76367C54.1309 8.62695 54.2969 8.55859 54.4883 8.55859C54.6836 8.55859 54.8496 8.62695 54.9863 8.76367C55.123 8.90039 55.1914 9.06641 55.1914 9.26172C55.1914 9.45312 55.123 9.61914 54.9863 9.75977C54.8496 9.89648 54.6836 9.96484 54.4883 9.96484Z" fill="#A1A1AA"/>
<path d="M56.9141 17.5V11.1836H57.9336V12.1328H58.0273C58.1875 11.7969 58.418 11.5371 58.7188 11.3535C59.0195 11.166 59.4023 11.0723 59.8672 11.0723C60.5781 11.0723 61.123 11.2754 61.502 11.6816C61.8848 12.084 62.0762 12.6602 62.0762 13.4102V17.5H61.0566V13.6562C61.0566 13.0859 60.9355 12.6641 60.6934 12.3906C60.4551 12.1133 60.084 11.9746 59.5801 11.9746C59.2441 11.9746 58.9531 12.0469 58.707 12.1914C58.4609 12.3359 58.2695 12.541 58.1328 12.8066C58 13.0723 57.9336 13.3906 57.9336 13.7617V17.5H56.9141Z" fill="#A1A1AA"/>
<path d="M66.5234 19.7266C66.0156 19.7266 65.5723 19.6543 65.1934 19.5098C64.8145 19.3691 64.5117 19.168 64.2852 18.9062C64.0625 18.6484 63.9238 18.3477 63.8691 18.0039L63.8809 17.998H64.9355L64.9414 18.0039C64.9961 18.2422 65.1602 18.4375 65.4336 18.5898C65.707 18.7461 66.0703 18.8242 66.5234 18.8242C67.0898 18.8242 67.5312 18.6953 67.8477 18.4375C68.168 18.1836 68.3281 17.8242 68.3281 17.3594V16.082H68.2344C68.1016 16.3125 67.9355 16.5098 67.7363 16.6738C67.5371 16.8379 67.3125 16.9629 67.0625 17.0488C66.8125 17.1309 66.543 17.1719 66.2539 17.1719C65.7109 17.1719 65.2402 17.043 64.8418 16.7852C64.4473 16.5234 64.1426 16.1641 63.9277 15.707C63.7129 15.25 63.6055 14.7266 63.6055 14.1367V14.125C63.6055 13.5352 63.7129 13.0117 63.9277 12.5547C64.1465 12.0938 64.4551 11.7324 64.8535 11.4707C65.252 11.2051 65.7266 11.0723 66.2773 11.0723C66.5742 11.0723 66.8477 11.1191 67.0977 11.2129C67.3477 11.3066 67.5684 11.4395 67.7598 11.6113C67.9551 11.7832 68.1172 11.9883 68.2461 12.2266H68.3164V11.1836H69.3359V17.4121C69.3359 17.8809 69.2207 18.2891 68.9902 18.6367C68.7637 18.9844 68.4395 19.252 68.0176 19.4395C67.5957 19.6309 67.0977 19.7266 66.5234 19.7266ZM66.4766 16.2695C66.8672 16.2695 67.2012 16.1797 67.4785 16C67.7598 15.8164 67.9746 15.5645 68.123 15.2441C68.2754 14.9238 68.3516 14.5547 68.3516 14.1367V14.125C68.3516 13.707 68.2754 13.3359 68.123 13.0117C67.9746 12.6875 67.7598 12.4336 67.4785 12.25C67.2012 12.0664 66.8672 11.9746 66.4766 11.9746C66.0859 11.9746 65.7539 12.0664 65.4805 12.25C65.2109 12.4336 65.0039 12.6875 64.8594 13.0117C64.7188 13.3359 64.6484 13.707 64.6484 14.125V14.1367C64.6484 14.5547 64.7188 14.9238 64.8594 15.2441C65.0039 15.5645 65.2109 15.8164 65.4805 16C65.7539 16.1797 66.0859 16.2695 66.4766 16.2695Z" fill="#A1A1AA"/>
<path d="M74.6094 19.6094V11.1836H75.6289V12.1914H75.7227C75.8516 11.957 76.0137 11.7578 76.209 11.5938C76.4043 11.4258 76.627 11.2969 76.877 11.207C77.127 11.1172 77.3984 11.0723 77.6914 11.0723C78.2266 11.0723 78.6914 11.209 79.0859 11.4824C79.4844 11.752 79.793 12.1309 80.0117 12.6191C80.2305 13.1074 80.3398 13.6797 80.3398 14.3359V14.3477C80.3398 15.0078 80.2305 15.582 80.0117 16.0703C79.793 16.5586 79.4844 16.9375 79.0859 17.207C78.6914 17.4766 78.2266 17.6113 77.6914 17.6113C77.4023 17.6113 77.1289 17.5664 76.8711 17.4766C76.6172 17.3828 76.3906 17.2539 76.1914 17.0898C75.9961 16.9258 75.8398 16.7305 75.7227 16.5039H75.6289V19.6094H74.6094ZM77.457 16.709C77.8438 16.709 78.1738 16.6152 78.4473 16.4277C78.7207 16.2363 78.9297 15.9648 79.0742 15.6133C79.2227 15.2578 79.2969 14.8359 79.2969 14.3477V14.3359C79.2969 13.8438 79.2227 13.4219 79.0742 13.0703C78.9297 12.7188 78.7207 12.4492 78.4473 12.2617C78.1738 12.0703 77.8438 11.9746 77.457 11.9746C77.0742 11.9746 76.7441 12.0703 76.4668 12.2617C76.1895 12.4531 75.9766 12.7246 75.8281 13.0762C75.6797 13.4277 75.6055 13.8477 75.6055 14.3359V14.3477C75.6055 14.832 75.6797 15.252 75.8281 15.6074C75.9766 15.959 76.1895 16.2305 76.4668 16.4219C76.7441 16.6133 77.0742 16.709 77.457 16.709Z" fill="#A1A1AA"/>
<path d="M84.5293 17.6113C83.9316 17.6113 83.4141 17.4805 82.9766 17.2188C82.543 16.9531 82.207 16.5762 81.9688 16.0879C81.7344 15.5996 81.6172 15.0195 81.6172 14.3477V14.3359C81.6172 13.6602 81.7344 13.0781 81.9688 12.5898C82.207 12.1016 82.543 11.7266 82.9766 11.4648C83.4141 11.2031 83.9316 11.0723 84.5293 11.0723C85.1309 11.0723 85.6484 11.2031 86.082 11.4648C86.5156 11.7266 86.8496 12.1016 87.084 12.5898C87.3223 13.0781 87.4414 13.6602 87.4414 14.3359V14.3477C87.4414 15.0195 87.3223 15.5996 87.084 16.0879C86.8496 16.5762 86.5156 16.9531 86.082 17.2188C85.6484 17.4805 85.1309 17.6113 84.5293 17.6113ZM84.5293 16.709C84.9277 16.709 85.2656 16.6152 85.543 16.4277C85.8203 16.2402 86.0312 15.9707 86.1758 15.6191C86.3242 15.2676 86.3984 14.8438 86.3984 14.3477V14.3359C86.3984 13.8359 86.3242 13.4102 86.1758 13.0586C86.0312 12.707 85.8203 12.4395 85.543 12.2559C85.2656 12.0684 84.9277 11.9746 84.5293 11.9746C84.1309 11.9746 83.793 12.0684 83.5156 12.2559C83.2383 12.4395 83.0254 12.707 82.877 13.0586C82.7324 13.4102 82.6602 13.8359 82.6602 14.3359V14.3477C82.6602 14.8438 82.7324 15.2676 82.877 15.6191C83.0254 15.9707 83.2383 16.2402 83.5156 16.4277C83.793 16.6152 84.1309 16.709 84.5293 16.709Z" fill="#A1A1AA"/>
<path d="M90.0078 17.5L88.2383 11.1836H89.2578L90.5 16.2344H90.5938L92.0059 11.1836H92.9727L94.3848 16.2344H94.4785L95.7207 11.1836H96.7344L94.9648 17.5H93.9395L92.5273 12.6133H92.4336L91.0273 17.5H90.0078Z" fill="#A1A1AA"/>
<path d="M100.426 17.6113C99.8242 17.6113 99.3066 17.4785 98.873 17.2129C98.4434 16.9473 98.1113 16.5723 97.877 16.0879C97.6465 15.5996 97.5312 15.0254 97.5312 14.3652V14.3594C97.5312 13.707 97.6465 13.1348 97.877 12.6426C98.1113 12.1504 98.4414 11.7656 98.8672 11.4883C99.293 11.2109 99.791 11.0723 100.361 11.0723C100.936 11.0723 101.428 11.2051 101.838 11.4707C102.252 11.7363 102.568 12.1074 102.787 12.584C103.01 13.0566 103.121 13.6074 103.121 14.2363V14.6348H98.0586V13.8203H102.6L102.096 14.5645V14.1602C102.096 13.6641 102.021 13.2559 101.873 12.9355C101.725 12.6152 101.52 12.377 101.258 12.2207C100.996 12.0605 100.695 11.9805 100.355 11.9805C100.016 11.9805 99.7109 12.0645 99.4414 12.2324C99.1758 12.3965 98.9648 12.6406 98.8086 12.9648C98.6523 13.2891 98.5742 13.6875 98.5742 14.1602V14.5645C98.5742 15.0137 98.6504 15.3984 98.8027 15.7188C98.9551 16.0352 99.1719 16.2793 99.4531 16.4512C99.7344 16.6191 100.066 16.7031 100.449 16.7031C100.734 16.7031 100.982 16.6641 101.193 16.5859C101.404 16.5078 101.578 16.4082 101.715 16.2871C101.852 16.166 101.947 16.043 102.002 15.918L102.025 15.8652H103.045L103.033 15.9121C102.979 16.127 102.881 16.3359 102.74 16.5391C102.604 16.7383 102.426 16.9199 102.207 17.084C101.988 17.2441 101.729 17.373 101.428 17.4707C101.131 17.5645 100.797 17.6113 100.426 17.6113Z" fill="#A1A1AA"/>
<path d="M104.703 17.5V11.1836H105.723V12.1211H105.816C105.938 11.7891 106.143 11.5312 106.432 11.3477C106.721 11.1641 107.078 11.0723 107.504 11.0723C107.602 11.0723 107.697 11.0781 107.791 11.0898C107.889 11.0977 107.963 11.1055 108.014 11.1133V12.1035C107.908 12.084 107.805 12.0703 107.703 12.0625C107.605 12.0508 107.5 12.0449 107.387 12.0449C107.062 12.0449 106.775 12.1094 106.525 12.2383C106.275 12.3672 106.078 12.5469 105.934 12.7773C105.793 13.0078 105.723 13.2773 105.723 13.5859V17.5H104.703Z" fill="#A1A1AA"/>
<path d="M111.676 17.6113C111.074 17.6113 110.557 17.4785 110.123 17.2129C109.693 16.9473 109.361 16.5723 109.127 16.0879C108.896 15.5996 108.781 15.0254 108.781 14.3652V14.3594C108.781 13.707 108.896 13.1348 109.127 12.6426C109.361 12.1504 109.691 11.7656 110.117 11.4883C110.543 11.2109 111.041 11.0723 111.611 11.0723C112.186 11.0723 112.678 11.2051 113.088 11.4707C113.502 11.7363 113.818 12.1074 114.037 12.584C114.26 13.0566 114.371 13.6074 114.371 14.2363V14.6348H109.309V13.8203H113.85L113.346 14.5645V14.1602C113.346 13.6641 113.271 13.2559 113.123 12.9355C112.975 12.6152 112.77 12.377 112.508 12.2207C112.246 12.0605 111.945 11.9805 111.605 11.9805C111.266 11.9805 110.961 12.0645 110.691 12.2324C110.426 12.3965 110.215 12.6406 110.059 12.9648C109.902 13.2891 109.824 13.6875 109.824 14.1602V14.5645C109.824 15.0137 109.9 15.3984 110.053 15.7188C110.205 16.0352 110.422 16.2793 110.703 16.4512C110.984 16.6191 111.316 16.7031 111.699 16.7031C111.984 16.7031 112.232 16.6641 112.443 16.5859C112.654 16.5078 112.828 16.4082 112.965 16.2871C113.102 16.166 113.197 16.043 113.252 15.918L113.275 15.8652H114.295L114.283 15.9121C114.229 16.127 114.131 16.3359 113.99 16.5391C113.854 16.7383 113.676 16.9199 113.457 17.084C113.238 17.2441 112.979 17.373 112.678 17.4707C112.381 17.5645 112.047 17.6113 111.676 17.6113Z" fill="#A1A1AA"/>
<path d="M118.285 17.6113C117.754 17.6113 117.289 17.4766 116.891 17.207C116.492 16.9375 116.184 16.5586 115.965 16.0703C115.746 15.5781 115.637 15.0039 115.637 14.3477V14.3359C115.637 13.6758 115.746 13.1016 115.965 12.6133C116.184 12.125 116.49 11.7461 116.885 11.4766C117.283 11.207 117.75 11.0723 118.285 11.0723C118.574 11.0723 118.846 11.1191 119.1 11.2129C119.357 11.3027 119.586 11.4297 119.785 11.5938C119.984 11.7578 120.141 11.9531 120.254 12.1797H120.348V8.67578H121.367V17.5H120.348V16.4922H120.254C120.125 16.7266 119.963 16.9277 119.768 17.0957C119.572 17.2598 119.35 17.3867 119.1 17.4766C118.85 17.5664 118.578 17.6113 118.285 17.6113ZM118.52 16.709C118.902 16.709 119.232 16.6133 119.51 16.4219C119.787 16.2305 120 15.959 120.148 15.6074C120.297 15.252 120.371 14.832 120.371 14.3477V14.3359C120.371 13.8477 120.297 13.4277 120.148 13.0762C120 12.7246 119.787 12.4531 119.51 12.2617C119.232 12.0703 118.902 11.9746 118.52 11.9746C118.137 11.9746 117.807 12.0703 117.529 12.2617C117.256 12.4492 117.045 12.7188 116.896 13.0703C116.752 13.4219 116.68 13.8438 116.68 14.3359V14.3477C116.68 14.8359 116.752 15.2578 116.896 15.6133C117.045 15.9648 117.256 16.2363 117.529 16.4277C117.807 16.6152 118.137 16.709 118.52 16.709Z" fill="#A1A1AA"/>
<path d="M129.84 17.6113C129.547 17.6113 129.275 17.5664 129.025 17.4766C128.775 17.3867 128.553 17.2598 128.357 17.0957C128.162 16.9277 128 16.7266 127.871 16.4922H127.777V17.5H126.758V8.67578H127.777V12.1797H127.871C127.988 11.9531 128.145 11.7578 128.34 11.5938C128.539 11.4297 128.766 11.3027 129.02 11.2129C129.277 11.1191 129.551 11.0723 129.84 11.0723C130.375 11.0723 130.84 11.207 131.234 11.4766C131.633 11.7461 131.941 12.125 132.16 12.6133C132.379 13.1016 132.488 13.6758 132.488 14.3359V14.3477C132.488 15.0039 132.379 15.5781 132.16 16.0703C131.941 16.5586 131.633 16.9375 131.234 17.207C130.84 17.4766 130.375 17.6113 129.84 17.6113ZM129.605 16.709C129.992 16.709 130.322 16.6152 130.596 16.4277C130.869 16.2363 131.078 15.9648 131.223 15.6133C131.371 15.2578 131.445 14.8359 131.445 14.3477V14.3359C131.445 13.8438 131.371 13.4219 131.223 13.0703C131.078 12.7188 130.869 12.4492 130.596 12.2617C130.322 12.0703 129.992 11.9746 129.605 11.9746C129.223 11.9746 128.893 12.0703 128.615 12.2617C128.338 12.4531 128.125 12.7246 127.977 13.0762C127.828 13.4277 127.754 13.8477 127.754 14.3359V14.3477C127.754 14.832 127.828 15.252 127.977 15.6074C128.125 15.959 128.338 16.2305 128.615 16.4219C128.893 16.6133 129.223 16.709 129.605 16.709Z" fill="#A1A1AA"/>
<path d="M134.375 19.7148C134.309 19.7148 134.234 19.7109 134.152 19.7031C134.07 19.6992 133.994 19.6914 133.924 19.6797V18.8418C133.986 18.8535 134.055 18.8613 134.129 18.8652C134.203 18.8691 134.275 18.8711 134.346 18.8711C134.635 18.8711 134.871 18.7969 135.055 18.6484C135.242 18.5 135.393 18.2441 135.506 17.8809L135.623 17.5059L133.285 11.1836H134.375L136.32 17.0195L135.916 16.3809H136.396L135.992 17.0195L137.932 11.1836H139.004L136.537 17.8867C136.365 18.3594 136.184 18.7285 135.992 18.9941C135.801 19.2598 135.576 19.4453 135.318 19.5508C135.064 19.6602 134.75 19.7148 134.375 19.7148Z" fill="#A1A1AA"/>
<path d="M149.035 16.2788C149.41 16.2788 149.5 16.2638 149.725 16.2638C150.459 16.2638 150.983 16.7458 150.983 17.4687C150.983 18.2821 150.264 18.8394 149.23 18.8394C148.211 18.8394 147.282 18.3122 146.743 17.4687L145.439 18.6436C146.158 19.8185 147.552 20.5264 149.185 20.5264C151.373 20.5264 152.871 19.2461 152.871 17.4236C152.871 16.3993 152.407 15.4956 151.673 15.1341V15.0889C152.227 14.6973 152.602 13.9442 152.602 13.1007C152.602 12.3927 152.332 11.7752 151.867 11.3083H152.167L152.856 9.98278V9.90747H149.2C147.207 9.90747 145.783 11.2179 145.783 13.0856C145.783 14.9383 147.207 16.2788 149.035 16.2788ZM147.627 13.0856C147.627 12.2421 148.286 11.5643 149.185 11.5643C150.099 11.5643 150.773 12.2572 150.773 13.0856C150.773 13.9592 150.099 14.622 149.185 14.622C148.271 14.622 147.627 13.9592 147.627 13.0856Z" fill="#999999"/>
<path d="M158.221 9.90747C157.382 9.90747 156.677 10.2087 156.333 10.7359H156.258V9.90747H154.265V17.5139H156.318V13.2664C156.318 12.3024 157.052 11.6547 158.221 11.6547V9.90747Z" fill="#999999"/>
<path d="M163.194 17.028L163.254 17.51H165.127V12.2834C165.127 10.4458 164.213 9.70776 161.876 9.70776C161.171 9.70776 160.497 9.768 159.838 9.93369L159.598 11.6508C160.122 11.455 160.872 11.3194 161.546 11.3194C162.61 11.3194 163.089 11.6809 163.089 12.434V12.8407C162.67 12.5395 162.07 12.3587 161.381 12.3587C159.703 12.3587 158.534 13.4282 158.534 15.0248C158.534 16.6214 159.688 17.736 161.336 17.736C162.115 17.736 162.745 17.4799 163.119 17.028H163.194ZM160.482 14.9946C160.482 14.3018 161.051 13.7896 161.846 13.7896C162.625 13.7896 163.179 14.3018 163.179 14.9946C163.179 15.7176 162.625 16.2297 161.846 16.2297C161.051 16.2297 160.482 15.7176 160.482 14.9946Z" fill="#999999"/>
<path d="M173.304 17.5138V12.1968C173.304 10.7056 172.3 9.6814 170.772 9.6814C169.858 9.6814 169.079 10.058 168.719 10.6002H168.659V9.90734H166.651V17.5138H168.704V12.9499C168.704 12.001 169.228 11.3985 170.067 11.3985C170.817 11.3985 171.266 11.8956 171.266 12.7993V17.5138H173.304Z" fill="#999999"/>
<path d="M174.441 13.703C174.441 16.0678 176.104 17.7397 178.517 17.7397C180.929 17.7397 182.593 16.0678 182.593 13.703C182.593 11.3533 180.929 9.6814 178.517 9.6814C176.104 9.6814 174.441 11.3533 174.441 13.703ZM176.329 13.688C176.329 12.3625 177.243 11.3834 178.517 11.3834C179.79 11.3834 180.704 12.3625 180.704 13.688C180.704 15.0586 179.79 16.0377 178.517 16.0377C177.243 16.0377 176.329 15.0586 176.329 13.688Z" fill="#999999"/>
<path d="M185.862 6.89453H183.81V17.5135H185.862V6.89453Z" fill="#999999"/>
<path d="M191.752 17.028L191.812 17.51H193.686V12.2834C193.686 10.4458 192.772 9.70776 190.434 9.70776C189.73 9.70776 189.055 9.768 188.396 9.93369L188.156 11.6508C188.681 11.455 189.43 11.3194 190.104 11.3194C191.168 11.3194 191.648 11.6809 191.648 12.434V12.8407C191.228 12.5395 190.629 12.3587 189.939 12.3587C188.261 12.3587 187.092 13.4282 187.092 15.0248C187.092 16.6214 188.246 17.736 189.894 17.736C190.674 17.736 191.303 17.4799 191.678 17.028H191.752ZM189.04 14.9946C189.04 14.3018 189.61 13.7896 190.404 13.7896C191.183 13.7896 191.738 14.3018 191.738 14.9946C191.738 15.7176 191.183 16.2297 190.404 16.2297C189.61 16.2297 189.04 15.7176 189.04 14.9946Z" fill="#999999"/>
<path d="M197.089 4.11206H197.089C196.462 4.11206 195.953 4.61658 195.953 5.23894V20.6889C195.953 21.3113 196.462 21.8158 197.089 21.8158C197.717 21.8158 198.226 21.3113 198.226 20.6889V5.23894C198.226 4.61658 197.717 4.11206 197.089 4.11206Z" fill="url(#paint0_linear_1461_3665)"/>
<defs>
<linearGradient id="paint0_linear_1461_3665" x1="197.089" y1="4.23324" x2="197.089" y2="21.6946" gradientUnits="userSpaceOnUse">
<stop stop-color="#74E34C"/>
<stop offset="1" stop-color="#7EFF7B"/>
</linearGradient>
</defs>
</svg>
